<!DOCTYPE svg PUBLIC "-//W3C//DTD SVG 1.1//EN" "http://www.w3.org/Graphics/SVG/1.1/DTD/svg11.dtd">
<!-- Uploaded to: SVG Repo, www.svgrepo.com, Transformed by: SVG Repo Mixer Tools -->
<svg fill="#6F8AEB" width="800px" height="800px" viewBox="0 0 32 32" version="1.1" xmlns="http://www.w3.org/2000/svg">
<g id="SVGRepo_bgCarrier" stroke-width="0"/>
<g id="SVGRepo_tracerCarrier" stroke-linecap="round" stroke-linejoin="round"/>
<g id="SVGRepo_iconCarrier"> <title>powerbi</title> <path d="M13.501 16h-7.498c0 0-0 0-0 0-0.69 0-1.25 0.559-1.25 1.25 0 0 0 0 0 0v0 12.496c0 0 0 0 0 0 0 0.69 0.559 1.25 1.25 1.25 0 0 0 0 0 0h8.747v-13.746c0-0.69-0.559-1.25-1.25-1.25v0zM19.749 8.502h-7.498c0 0-0 0-0 0-0.69 0-1.25 0.559-1.25 1.25 0 0 0 0 0 0v0 5.623h2.499c1.035 0.001 1.873 0.84 1.874 1.874v13.746h5.623v-21.244c0-0.69-0.559-1.25-1.25-1.25v0zM27.247 2.254v27.492c0 0 0 0 0 0 0 0.69-0.559 1.25-1.25 1.25 0 0-0 0-0 0h-4.374v-21.244c-0.001-1.035-0.84-1.873-1.874-1.874h-2.499v-5.623c0-0 0-0 0-0 0-0.69 0.559-1.25 1.25-1.25h7.498c0.69 0 1.25 0.559 1.25 1.25 0 0 0 0 0 0v0z"/> </g>
</svg>